<mxfile host="app.diagrams.net" modified="2023-12-20T17:28:04.662Z" agent="Mozilla/5.0 (Windows NT 10.0; Win64; x64) AppleWebKit/537.36 (KHTML, like Gecko) Chrome/120.0.0.0 Safari/537.36 Edg/120.0.0.0" etag="KMlXBT_3KU6I6wXOzHDI" version="22.1.11" type="device" pages="4">
  <diagram name="Thêm bàn" id="Oookx-GotJW0oljgRS5G">
    <mxGraphModel dx="1236" dy="590" grid="1" gridSize="10" guides="1" tooltips="1" connect="1" arrows="1" fold="1" page="1" pageScale="1" pageWidth="827" pageHeight="1169" math="0" shadow="0">
      <root>
        <mxCell id="0" />
        <mxCell id="1" parent="0" />
        <mxCell id="BwKGZaR5r7pmYngRxasZ-1" value="" style="shape=umlLifeline;perimeter=lifelinePerimeter;whiteSpace=wrap;html=1;container=1;dropTarget=0;collapsible=0;recursiveResize=0;outlineConnect=0;portConstraint=eastwest;newEdgeStyle={&quot;curved&quot;:0,&quot;rounded&quot;:0};participant=umlActor;" parent="1" vertex="1">
          <mxGeometry x="150" y="80" width="40" height="590" as="geometry" />
        </mxCell>
        <mxCell id="BwKGZaR5r7pmYngRxasZ-2" value="" style="html=1;points=[[0,0,0,0,5],[0,1,0,0,-5],[1,0,0,0,5],[1,1,0,0,-5]];perimeter=orthogonalPerimeter;outlineConnect=0;targetShapes=umlLifeline;portConstraint=eastwest;newEdgeStyle={&quot;curved&quot;:0,&quot;rounded&quot;:0};" parent="BwKGZaR5r7pmYngRxasZ-1" vertex="1">
          <mxGeometry x="15" y="80" width="10" height="510" as="geometry" />
        </mxCell>
        <mxCell id="BwKGZaR5r7pmYngRxasZ-3" value="" style="shape=umlLifeline;perimeter=lifelinePerimeter;whiteSpace=wrap;html=1;container=1;dropTarget=0;collapsible=0;recursiveResize=0;outlineConnect=0;portConstraint=eastwest;newEdgeStyle={&quot;curved&quot;:0,&quot;rounded&quot;:0};participant=umlBoundary;" parent="1" vertex="1">
          <mxGeometry x="310" y="80" width="50" height="560" as="geometry" />
        </mxCell>
        <mxCell id="BwKGZaR5r7pmYngRxasZ-4" value="" style="html=1;points=[[0,0,0,0,5],[0,1,0,0,-5],[1,0,0,0,5],[1,1,0,0,-5]];perimeter=orthogonalPerimeter;outlineConnect=0;targetShapes=umlLifeline;portConstraint=eastwest;newEdgeStyle={&quot;curved&quot;:0,&quot;rounded&quot;:0};" parent="BwKGZaR5r7pmYngRxasZ-3" vertex="1">
          <mxGeometry x="20" y="90" width="10" height="130" as="geometry" />
        </mxCell>
        <mxCell id="BwKGZaR5r7pmYngRxasZ-7" value="Quản lý" style="text;html=1;strokeColor=none;fillColor=none;align=center;verticalAlign=middle;whiteSpace=wrap;rounded=0;" parent="1" vertex="1">
          <mxGeometry x="135" y="120" width="70" height="30" as="geometry" />
        </mxCell>
        <mxCell id="BwKGZaR5r7pmYngRxasZ-8" value="view bàn" style="text;html=1;strokeColor=none;fillColor=none;align=center;verticalAlign=middle;whiteSpace=wrap;rounded=0;" parent="1" vertex="1">
          <mxGeometry x="290" y="120" width="90" height="30" as="geometry" />
        </mxCell>
        <mxCell id="BwKGZaR5r7pmYngRxasZ-12" value="" style="shape=umlLifeline;perimeter=lifelinePerimeter;whiteSpace=wrap;html=1;container=1;dropTarget=0;collapsible=0;recursiveResize=0;outlineConnect=0;portConstraint=eastwest;newEdgeStyle={&quot;curved&quot;:0,&quot;rounded&quot;:0};participant=umlBoundary;" parent="1" vertex="1">
          <mxGeometry x="500" y="80" width="50" height="570" as="geometry" />
        </mxCell>
        <mxCell id="BwKGZaR5r7pmYngRxasZ-13" value="" style="html=1;points=[[0,0,0,0,5],[0,1,0,0,-5],[1,0,0,0,5],[1,1,0,0,-5]];perimeter=orthogonalPerimeter;outlineConnect=0;targetShapes=umlLifeline;portConstraint=eastwest;newEdgeStyle={&quot;curved&quot;:0,&quot;rounded&quot;:0};" parent="BwKGZaR5r7pmYngRxasZ-12" vertex="1">
          <mxGeometry x="20" y="170" width="10" height="70" as="geometry" />
        </mxCell>
        <mxCell id="BwKGZaR5r7pmYngRxasZ-14" value="view thêm bàn" style="text;html=1;strokeColor=none;fillColor=none;align=center;verticalAlign=middle;whiteSpace=wrap;rounded=0;" parent="1" vertex="1">
          <mxGeometry x="480" y="120" width="90" height="30" as="geometry" />
        </mxCell>
        <mxCell id="BwKGZaR5r7pmYngRxasZ-15" value="Xem danh sách bàn" style="html=1;verticalAlign=bottom;endArrow=block;curved=0;rounded=0;" parent="1" target="BwKGZaR5r7pmYngRxasZ-4" edge="1">
          <mxGeometry width="80" relative="1" as="geometry">
            <mxPoint x="175" y="200" as="sourcePoint" />
            <mxPoint x="310" y="200" as="targetPoint" />
          </mxGeometry>
        </mxCell>
        <mxCell id="BwKGZaR5r7pmYngRxasZ-16" value="" style="html=1;verticalAlign=bottom;endArrow=block;curved=0;rounded=0;" parent="1" target="BwKGZaR5r7pmYngRxasZ-4" edge="1">
          <mxGeometry width="80" relative="1" as="geometry">
            <mxPoint x="175" y="235" as="sourcePoint" />
            <mxPoint x="310" y="240" as="targetPoint" />
          </mxGeometry>
        </mxCell>
        <mxCell id="BwKGZaR5r7pmYngRxasZ-17" value="HIển thị form nhập thông tin bàn" style="html=1;verticalAlign=bottom;endArrow=block;curved=0;rounded=0;" parent="1" target="BwKGZaR5r7pmYngRxasZ-13" edge="1">
          <mxGeometry width="80" relative="1" as="geometry">
            <mxPoint x="340" y="262" as="sourcePoint" />
            <mxPoint x="490" y="262" as="targetPoint" />
          </mxGeometry>
        </mxCell>
        <mxCell id="BwKGZaR5r7pmYngRxasZ-19" value="Nhập thông tin của bàn" style="html=1;verticalAlign=bottom;endArrow=block;curved=0;rounded=0;exitX=1;exitY=1;exitDx=0;exitDy=-5;exitPerimeter=0;" parent="1" source="BwKGZaR5r7pmYngRxasZ-4" target="BwKGZaR5r7pmYngRxasZ-13" edge="1">
          <mxGeometry width="80" relative="1" as="geometry">
            <mxPoint x="350" y="272" as="sourcePoint" />
            <mxPoint x="490" y="295" as="targetPoint" />
          </mxGeometry>
        </mxCell>
        <mxCell id="BwKGZaR5r7pmYngRxasZ-23" value=":Database&lt;br&gt;" style="shape=umlLifeline;perimeter=lifelinePerimeter;whiteSpace=wrap;html=1;container=1;dropTarget=0;collapsible=0;recursiveResize=0;outlineConnect=0;portConstraint=eastwest;newEdgeStyle={&quot;curved&quot;:0,&quot;rounded&quot;:0};size=70;" parent="1" vertex="1">
          <mxGeometry x="880" y="80" width="100" height="560" as="geometry" />
        </mxCell>
        <mxCell id="BwKGZaR5r7pmYngRxasZ-24" value="" style="html=1;points=[[0,0,0,0,5],[0,1,0,0,-5],[1,0,0,0,5],[1,1,0,0,-5]];perimeter=orthogonalPerimeter;outlineConnect=0;targetShapes=umlLifeline;portConstraint=eastwest;newEdgeStyle={&quot;curved&quot;:0,&quot;rounded&quot;:0};" parent="BwKGZaR5r7pmYngRxasZ-23" vertex="1">
          <mxGeometry x="45" y="220" width="10" height="90" as="geometry" />
        </mxCell>
        <mxCell id="BwKGZaR5r7pmYngRxasZ-26" value="" style="shape=umlLifeline;perimeter=lifelinePerimeter;whiteSpace=wrap;html=1;container=1;dropTarget=0;collapsible=0;recursiveResize=0;outlineConnect=0;portConstraint=eastwest;newEdgeStyle={&quot;curved&quot;:0,&quot;rounded&quot;:0};participant=umlControl;" parent="1" vertex="1">
          <mxGeometry x="715" y="80" width="40" height="560" as="geometry" />
        </mxCell>
        <mxCell id="BwKGZaR5r7pmYngRxasZ-27" value="" style="html=1;points=[[0,0,0,0,5],[0,1,0,0,-5],[1,0,0,0,5],[1,1,0,0,-5]];perimeter=orthogonalPerimeter;outlineConnect=0;targetShapes=umlLifeline;portConstraint=eastwest;newEdgeStyle={&quot;curved&quot;:0,&quot;rounded&quot;:0};" parent="BwKGZaR5r7pmYngRxasZ-26" vertex="1">
          <mxGeometry x="15" y="210" width="10" height="50" as="geometry" />
        </mxCell>
        <mxCell id="BwKGZaR5r7pmYngRxasZ-28" value="controller thêm bàn" style="text;html=1;align=center;verticalAlign=middle;resizable=0;points=[];autosize=1;strokeColor=none;fillColor=none;" parent="1" vertex="1">
          <mxGeometry x="670" y="120" width="130" height="30" as="geometry" />
        </mxCell>
        <mxCell id="BwKGZaR5r7pmYngRxasZ-29" value="Bấm thêm bàn" style="text;html=1;align=center;verticalAlign=middle;resizable=0;points=[];autosize=1;strokeColor=none;fillColor=none;" parent="1" vertex="1">
          <mxGeometry x="205" y="208" width="100" height="30" as="geometry" />
        </mxCell>
        <mxCell id="BwKGZaR5r7pmYngRxasZ-31" value="Tạo truy vấn xử lý yêu cầu thêm bàn" style="html=1;verticalAlign=bottom;endArrow=block;curved=0;rounded=0;exitX=1;exitY=1;exitDx=0;exitDy=-5;exitPerimeter=0;" parent="1" source="BwKGZaR5r7pmYngRxasZ-13" target="BwKGZaR5r7pmYngRxasZ-27" edge="1">
          <mxGeometry width="80" relative="1" as="geometry">
            <mxPoint x="570" y="330" as="sourcePoint" />
            <mxPoint x="670" y="305" as="targetPoint" />
          </mxGeometry>
        </mxCell>
        <mxCell id="29cvQpPS0bBR17s8yQfC-6" value="Kiểm tra sự tồn tại của bàn" style="html=1;verticalAlign=bottom;endArrow=block;curved=0;rounded=0;exitX=1;exitY=1;exitDx=0;exitDy=-5;exitPerimeter=0;" parent="1" source="BwKGZaR5r7pmYngRxasZ-27" target="BwKGZaR5r7pmYngRxasZ-24" edge="1">
          <mxGeometry width="80" relative="1" as="geometry">
            <mxPoint x="755" y="320" as="sourcePoint" />
            <mxPoint x="925" y="335" as="targetPoint" />
          </mxGeometry>
        </mxCell>
        <mxCell id="mVhC9YgJ7e27wMrWbzD0-1" value="Trả về kết quả" style="html=1;verticalAlign=bottom;startArrow=none;startFill=0;endArrow=open;startSize=8;rounded=0;dashed=1;endFill=0;entryX=1;entryY=0;entryDx=0;entryDy=5;entryPerimeter=0;" parent="1" source="BwKGZaR5r7pmYngRxasZ-24" target="mVhC9YgJ7e27wMrWbzD0-2" edge="1">
          <mxGeometry x="0.0017" width="60" relative="1" as="geometry">
            <mxPoint x="925" y="375" as="sourcePoint" />
            <mxPoint x="350" y="378" as="targetPoint" />
            <mxPoint as="offset" />
          </mxGeometry>
        </mxCell>
        <mxCell id="mVhC9YgJ7e27wMrWbzD0-2" value="" style="html=1;points=[[0,0,0,0,5],[0,1,0,0,-5],[1,0,0,0,5],[1,1,0,0,-5]];perimeter=orthogonalPerimeter;outlineConnect=0;targetShapes=umlLifeline;portConstraint=eastwest;newEdgeStyle={&quot;curved&quot;:0,&quot;rounded&quot;:0};" parent="1" vertex="1">
          <mxGeometry x="730" y="370" width="10" height="20" as="geometry" />
        </mxCell>
        <mxCell id="NrzXLiuCeG66JUkSAZN9-1" value="alt" style="shape=umlFrame;whiteSpace=wrap;html=1;pointerEvents=0;" parent="1" vertex="1">
          <mxGeometry x="10" y="400" width="990" height="199" as="geometry" />
        </mxCell>
        <mxCell id="NrzXLiuCeG66JUkSAZN9-2" value="" style="endArrow=none;dashed=1;html=1;rounded=0;entryX=1.004;entryY=0.32;entryDx=0;entryDy=0;entryPerimeter=0;" parent="1" edge="1">
          <mxGeometry width="50" height="50" relative="1" as="geometry">
            <mxPoint x="6" y="480" as="sourcePoint" />
            <mxPoint x="1003.96" y="474.79999999999995" as="targetPoint" />
            <Array as="points" />
          </mxGeometry>
        </mxCell>
        <mxCell id="NrzXLiuCeG66JUkSAZN9-3" value="invalid" style="text;html=1;align=center;verticalAlign=middle;resizable=0;points=[];autosize=1;strokeColor=none;fillColor=none;" parent="1" vertex="1">
          <mxGeometry x="70" y="429" width="60" height="30" as="geometry" />
        </mxCell>
        <mxCell id="NrzXLiuCeG66JUkSAZN9-4" value="valid" style="text;html=1;align=center;verticalAlign=middle;resizable=0;points=[];autosize=1;strokeColor=none;fillColor=none;" parent="1" vertex="1">
          <mxGeometry x="75" y="489" width="50" height="30" as="geometry" />
        </mxCell>
        <mxCell id="NrzXLiuCeG66JUkSAZN9-5" value="" style="html=1;points=[[0,0,0,0,5],[0,1,0,0,-5],[1,0,0,0,5],[1,1,0,0,-5]];perimeter=orthogonalPerimeter;outlineConnect=0;targetShapes=umlLifeline;portConstraint=eastwest;newEdgeStyle={&quot;curved&quot;:0,&quot;rounded&quot;:0};" parent="1" vertex="1">
          <mxGeometry x="330" y="432" width="10" height="24" as="geometry" />
        </mxCell>
        <mxCell id="NrzXLiuCeG66JUkSAZN9-6" value="Đưa ra thông báo lỗi" style="html=1;verticalAlign=bottom;startArrow=none;startFill=0;endArrow=open;startSize=8;rounded=0;dashed=1;endFill=0;entryX=1;entryY=0;entryDx=0;entryDy=5;entryPerimeter=0;" parent="1" source="NrzXLiuCeG66JUkSAZN9-11" target="NrzXLiuCeG66JUkSAZN9-5" edge="1">
          <mxGeometry x="0.0017" width="60" relative="1" as="geometry">
            <mxPoint x="940" y="440" as="sourcePoint" />
            <mxPoint x="650" y="360" as="targetPoint" />
            <mxPoint as="offset" />
          </mxGeometry>
        </mxCell>
        <mxCell id="NrzXLiuCeG66JUkSAZN9-7" value="" style="html=1;points=[[0,0,0,0,5],[0,1,0,0,-5],[1,0,0,0,5],[1,1,0,0,-5]];perimeter=orthogonalPerimeter;outlineConnect=0;targetShapes=umlLifeline;portConstraint=eastwest;newEdgeStyle={&quot;curved&quot;:0,&quot;rounded&quot;:0};" parent="1" vertex="1">
          <mxGeometry x="330" y="510" width="10" height="30" as="geometry" />
        </mxCell>
        <mxCell id="NrzXLiuCeG66JUkSAZN9-8" value="Đưa ra thông báo thành công" style="html=1;verticalAlign=bottom;startArrow=none;startFill=0;endArrow=open;startSize=8;rounded=0;dashed=1;endFill=0;" parent="1" source="NrzXLiuCeG66JUkSAZN9-11" target="NrzXLiuCeG66JUkSAZN9-7" edge="1">
          <mxGeometry x="0.0017" width="60" relative="1" as="geometry">
            <mxPoint x="780" y="520" as="sourcePoint" />
            <mxPoint x="350" y="517" as="targetPoint" />
            <mxPoint as="offset" />
          </mxGeometry>
        </mxCell>
        <mxCell id="NrzXLiuCeG66JUkSAZN9-9" value="Hiển thị danh sách bàn sau khi thêm" style="html=1;verticalAlign=bottom;startArrow=none;startFill=0;endArrow=open;startSize=8;rounded=0;dashed=1;endFill=0;entryX=1;entryY=1;entryDx=0;entryDy=-5;entryPerimeter=0;" parent="1" source="NrzXLiuCeG66JUkSAZN9-11" target="NrzXLiuCeG66JUkSAZN9-10" edge="1">
          <mxGeometry x="-0.0598" y="-10" width="60" relative="1" as="geometry">
            <mxPoint x="935" y="584" as="sourcePoint" />
            <mxPoint x="360" y="527" as="targetPoint" />
            <mxPoint as="offset" />
          </mxGeometry>
        </mxCell>
        <mxCell id="NrzXLiuCeG66JUkSAZN9-10" value="" style="html=1;points=[[0,0,0,0,5],[0,1,0,0,-5],[1,0,0,0,5],[1,1,0,0,-5]];perimeter=orthogonalPerimeter;outlineConnect=0;targetShapes=umlLifeline;portConstraint=eastwest;newEdgeStyle={&quot;curved&quot;:0,&quot;rounded&quot;:0};" parent="1" vertex="1">
          <mxGeometry x="330" y="555" width="10" height="30" as="geometry" />
        </mxCell>
        <mxCell id="NrzXLiuCeG66JUkSAZN9-11" value="" style="html=1;points=[[0,0,0,0,5],[0,1,0,0,-5],[1,0,0,0,5],[1,1,0,0,-5]];perimeter=orthogonalPerimeter;outlineConnect=0;targetShapes=umlLifeline;portConstraint=eastwest;newEdgeStyle={&quot;curved&quot;:0,&quot;rounded&quot;:0};" parent="1" vertex="1">
          <mxGeometry x="730" y="415" width="10" height="170" as="geometry" />
        </mxCell>
      </root>
    </mxGraphModel>
  </diagram>
  <diagram id="9Hkt8O4DphCK_kjbzPnw" name="Sửa bàn">
    <mxGraphModel dx="1236" dy="590" grid="1" gridSize="10" guides="1" tooltips="1" connect="1" arrows="1" fold="1" page="1" pageScale="1" pageWidth="827" pageHeight="1169" math="0" shadow="0">
      <root>
        <mxCell id="0" />
        <mxCell id="1" parent="0" />
        <mxCell id="ljzvtjW0OF2KffV94q89-1" value="" style="shape=umlLifeline;perimeter=lifelinePerimeter;whiteSpace=wrap;html=1;container=1;dropTarget=0;collapsible=0;recursiveResize=0;outlineConnect=0;portConstraint=eastwest;newEdgeStyle={&quot;curved&quot;:0,&quot;rounded&quot;:0};participant=umlActor;" parent="1" vertex="1">
          <mxGeometry x="150" y="80" width="40" height="560" as="geometry" />
        </mxCell>
        <mxCell id="ljzvtjW0OF2KffV94q89-2" value="" style="html=1;points=[[0,0,0,0,5],[0,1,0,0,-5],[1,0,0,0,5],[1,1,0,0,-5]];perimeter=orthogonalPerimeter;outlineConnect=0;targetShapes=umlLifeline;portConstraint=eastwest;newEdgeStyle={&quot;curved&quot;:0,&quot;rounded&quot;:0};" parent="ljzvtjW0OF2KffV94q89-1" vertex="1">
          <mxGeometry x="15" y="80" width="10" height="480" as="geometry" />
        </mxCell>
        <mxCell id="ljzvtjW0OF2KffV94q89-3" value="" style="shape=umlLifeline;perimeter=lifelinePerimeter;whiteSpace=wrap;html=1;container=1;dropTarget=0;collapsible=0;recursiveResize=0;outlineConnect=0;portConstraint=eastwest;newEdgeStyle={&quot;curved&quot;:0,&quot;rounded&quot;:0};participant=umlBoundary;" parent="1" vertex="1">
          <mxGeometry x="310" y="80" width="50" height="520" as="geometry" />
        </mxCell>
        <mxCell id="ljzvtjW0OF2KffV94q89-4" value="" style="html=1;points=[[0,0,0,0,5],[0,1,0,0,-5],[1,0,0,0,5],[1,1,0,0,-5]];perimeter=orthogonalPerimeter;outlineConnect=0;targetShapes=umlLifeline;portConstraint=eastwest;newEdgeStyle={&quot;curved&quot;:0,&quot;rounded&quot;:0};" parent="ljzvtjW0OF2KffV94q89-3" vertex="1">
          <mxGeometry x="20" y="90" width="10" height="130" as="geometry" />
        </mxCell>
        <mxCell id="ljzvtjW0OF2KffV94q89-5" value="Quản lý" style="text;html=1;strokeColor=none;fillColor=none;align=center;verticalAlign=middle;whiteSpace=wrap;rounded=0;" parent="1" vertex="1">
          <mxGeometry x="135" y="120" width="70" height="30" as="geometry" />
        </mxCell>
        <mxCell id="ljzvtjW0OF2KffV94q89-6" value="view bàn" style="text;html=1;strokeColor=none;fillColor=none;align=center;verticalAlign=middle;whiteSpace=wrap;rounded=0;" parent="1" vertex="1">
          <mxGeometry x="290" y="120" width="90" height="30" as="geometry" />
        </mxCell>
        <mxCell id="ljzvtjW0OF2KffV94q89-7" value="" style="shape=umlLifeline;perimeter=lifelinePerimeter;whiteSpace=wrap;html=1;container=1;dropTarget=0;collapsible=0;recursiveResize=0;outlineConnect=0;portConstraint=eastwest;newEdgeStyle={&quot;curved&quot;:0,&quot;rounded&quot;:0};participant=umlBoundary;" parent="1" vertex="1">
          <mxGeometry x="500" y="80" width="50" height="530" as="geometry" />
        </mxCell>
        <mxCell id="ljzvtjW0OF2KffV94q89-8" value="" style="html=1;points=[[0,0,0,0,5],[0,1,0,0,-5],[1,0,0,0,5],[1,1,0,0,-5]];perimeter=orthogonalPerimeter;outlineConnect=0;targetShapes=umlLifeline;portConstraint=eastwest;newEdgeStyle={&quot;curved&quot;:0,&quot;rounded&quot;:0};" parent="ljzvtjW0OF2KffV94q89-7" vertex="1">
          <mxGeometry x="20" y="170" width="10" height="70" as="geometry" />
        </mxCell>
        <mxCell id="ljzvtjW0OF2KffV94q89-9" value="view sửa bàn" style="text;html=1;strokeColor=none;fillColor=none;align=center;verticalAlign=middle;whiteSpace=wrap;rounded=0;" parent="1" vertex="1">
          <mxGeometry x="480" y="120" width="90" height="30" as="geometry" />
        </mxCell>
        <mxCell id="ljzvtjW0OF2KffV94q89-10" value="Xem danh sách bàn" style="html=1;verticalAlign=bottom;endArrow=block;curved=0;rounded=0;" parent="1" target="ljzvtjW0OF2KffV94q89-4" edge="1">
          <mxGeometry width="80" relative="1" as="geometry">
            <mxPoint x="175" y="200" as="sourcePoint" />
            <mxPoint x="310" y="200" as="targetPoint" />
          </mxGeometry>
        </mxCell>
        <mxCell id="ljzvtjW0OF2KffV94q89-11" value="" style="html=1;verticalAlign=bottom;endArrow=block;curved=0;rounded=0;" parent="1" target="ljzvtjW0OF2KffV94q89-4" edge="1">
          <mxGeometry width="80" relative="1" as="geometry">
            <mxPoint x="175" y="235" as="sourcePoint" />
            <mxPoint x="310" y="240" as="targetPoint" />
          </mxGeometry>
        </mxCell>
        <mxCell id="ljzvtjW0OF2KffV94q89-12" value="HIển thị form thông tin bàn cần sửa" style="html=1;verticalAlign=bottom;endArrow=block;curved=0;rounded=0;" parent="1" target="ljzvtjW0OF2KffV94q89-8" edge="1">
          <mxGeometry width="80" relative="1" as="geometry">
            <mxPoint x="340" y="262" as="sourcePoint" />
            <mxPoint x="490" y="262" as="targetPoint" />
          </mxGeometry>
        </mxCell>
        <mxCell id="ljzvtjW0OF2KffV94q89-13" value="Nhập thông tin cần sửa" style="html=1;verticalAlign=bottom;endArrow=block;curved=0;rounded=0;exitX=1;exitY=1;exitDx=0;exitDy=-5;exitPerimeter=0;" parent="1" source="ljzvtjW0OF2KffV94q89-4" target="ljzvtjW0OF2KffV94q89-8" edge="1">
          <mxGeometry width="80" relative="1" as="geometry">
            <mxPoint x="350" y="272" as="sourcePoint" />
            <mxPoint x="490" y="295" as="targetPoint" />
          </mxGeometry>
        </mxCell>
        <mxCell id="ljzvtjW0OF2KffV94q89-14" value=":Database&lt;br&gt;" style="shape=umlLifeline;perimeter=lifelinePerimeter;whiteSpace=wrap;html=1;container=1;dropTarget=0;collapsible=0;recursiveResize=0;outlineConnect=0;portConstraint=eastwest;newEdgeStyle={&quot;curved&quot;:0,&quot;rounded&quot;:0};size=70;" parent="1" vertex="1">
          <mxGeometry x="880" y="80" width="100" height="530" as="geometry" />
        </mxCell>
        <mxCell id="ljzvtjW0OF2KffV94q89-15" value="" style="html=1;points=[[0,0,0,0,5],[0,1,0,0,-5],[1,0,0,0,5],[1,1,0,0,-5]];perimeter=orthogonalPerimeter;outlineConnect=0;targetShapes=umlLifeline;portConstraint=eastwest;newEdgeStyle={&quot;curved&quot;:0,&quot;rounded&quot;:0};" parent="ljzvtjW0OF2KffV94q89-14" vertex="1">
          <mxGeometry x="45" y="220" width="10" height="90" as="geometry" />
        </mxCell>
        <mxCell id="ljzvtjW0OF2KffV94q89-16" value="" style="shape=umlLifeline;perimeter=lifelinePerimeter;whiteSpace=wrap;html=1;container=1;dropTarget=0;collapsible=0;recursiveResize=0;outlineConnect=0;portConstraint=eastwest;newEdgeStyle={&quot;curved&quot;:0,&quot;rounded&quot;:0};participant=umlControl;" parent="1" vertex="1">
          <mxGeometry x="715" y="80" width="40" height="530" as="geometry" />
        </mxCell>
        <mxCell id="ljzvtjW0OF2KffV94q89-17" value="" style="html=1;points=[[0,0,0,0,5],[0,1,0,0,-5],[1,0,0,0,5],[1,1,0,0,-5]];perimeter=orthogonalPerimeter;outlineConnect=0;targetShapes=umlLifeline;portConstraint=eastwest;newEdgeStyle={&quot;curved&quot;:0,&quot;rounded&quot;:0};" parent="ljzvtjW0OF2KffV94q89-16" vertex="1">
          <mxGeometry x="15" y="210" width="10" height="50" as="geometry" />
        </mxCell>
        <mxCell id="ljzvtjW0OF2KffV94q89-18" value="controller sửa bàn" style="text;html=1;align=center;verticalAlign=middle;resizable=0;points=[];autosize=1;strokeColor=none;fillColor=none;" parent="1" vertex="1">
          <mxGeometry x="675" y="120" width="120" height="30" as="geometry" />
        </mxCell>
        <mxCell id="ljzvtjW0OF2KffV94q89-19" value="Chọn bàn cần sửa" style="text;html=1;align=center;verticalAlign=middle;resizable=0;points=[];autosize=1;strokeColor=none;fillColor=none;" parent="1" vertex="1">
          <mxGeometry x="195" y="208" width="120" height="30" as="geometry" />
        </mxCell>
        <mxCell id="ljzvtjW0OF2KffV94q89-20" value="Tạo truy vấn xử lý yêu cầu sửa bàn" style="html=1;verticalAlign=bottom;endArrow=block;curved=0;rounded=0;exitX=1;exitY=1;exitDx=0;exitDy=-5;exitPerimeter=0;" parent="1" source="ljzvtjW0OF2KffV94q89-8" target="ljzvtjW0OF2KffV94q89-17" edge="1">
          <mxGeometry width="80" relative="1" as="geometry">
            <mxPoint x="570" y="330" as="sourcePoint" />
            <mxPoint x="670" y="305" as="targetPoint" />
          </mxGeometry>
        </mxCell>
        <mxCell id="ljzvtjW0OF2KffV94q89-21" value="alt" style="shape=umlFrame;whiteSpace=wrap;html=1;pointerEvents=0;" parent="1" vertex="1">
          <mxGeometry x="10" y="400" width="990" height="199" as="geometry" />
        </mxCell>
        <mxCell id="ljzvtjW0OF2KffV94q89-22" value="" style="endArrow=none;dashed=1;html=1;rounded=0;entryX=1.004;entryY=0.32;entryDx=0;entryDy=0;entryPerimeter=0;" parent="1" edge="1">
          <mxGeometry width="50" height="50" relative="1" as="geometry">
            <mxPoint x="6" y="480" as="sourcePoint" />
            <mxPoint x="1003.96" y="474.79999999999995" as="targetPoint" />
            <Array as="points" />
          </mxGeometry>
        </mxCell>
        <mxCell id="ljzvtjW0OF2KffV94q89-23" value="invalid" style="text;html=1;align=center;verticalAlign=middle;resizable=0;points=[];autosize=1;strokeColor=none;fillColor=none;" parent="1" vertex="1">
          <mxGeometry x="70" y="429" width="60" height="30" as="geometry" />
        </mxCell>
        <mxCell id="ljzvtjW0OF2KffV94q89-24" value="valid" style="text;html=1;align=center;verticalAlign=middle;resizable=0;points=[];autosize=1;strokeColor=none;fillColor=none;" parent="1" vertex="1">
          <mxGeometry x="75" y="489" width="50" height="30" as="geometry" />
        </mxCell>
        <mxCell id="ljzvtjW0OF2KffV94q89-26" value="Kiểm tra sự tồn tại của bàn" style="html=1;verticalAlign=bottom;endArrow=block;curved=0;rounded=0;exitX=1;exitY=1;exitDx=0;exitDy=-5;exitPerimeter=0;" parent="1" source="ljzvtjW0OF2KffV94q89-17" target="ljzvtjW0OF2KffV94q89-15" edge="1">
          <mxGeometry width="80" relative="1" as="geometry">
            <mxPoint x="755" y="320" as="sourcePoint" />
            <mxPoint x="925" y="335" as="targetPoint" />
          </mxGeometry>
        </mxCell>
        <mxCell id="ljzvtjW0OF2KffV94q89-32" value="Trả về kết quả" style="html=1;verticalAlign=bottom;startArrow=none;startFill=0;endArrow=open;startSize=8;rounded=0;dashed=1;endFill=0;entryX=1;entryY=0;entryDx=0;entryDy=5;entryPerimeter=0;" parent="1" source="ljzvtjW0OF2KffV94q89-15" target="ljzvtjW0OF2KffV94q89-33" edge="1">
          <mxGeometry x="0.0017" width="60" relative="1" as="geometry">
            <mxPoint x="935" y="378" as="sourcePoint" />
            <mxPoint x="350" y="378" as="targetPoint" />
            <mxPoint as="offset" />
          </mxGeometry>
        </mxCell>
        <mxCell id="ljzvtjW0OF2KffV94q89-33" value="" style="html=1;points=[[0,0,0,0,5],[0,1,0,0,-5],[1,0,0,0,5],[1,1,0,0,-5]];perimeter=orthogonalPerimeter;outlineConnect=0;targetShapes=umlLifeline;portConstraint=eastwest;newEdgeStyle={&quot;curved&quot;:0,&quot;rounded&quot;:0};" parent="1" vertex="1">
          <mxGeometry x="730" y="370" width="10" height="20" as="geometry" />
        </mxCell>
        <mxCell id="Afcs3pL26JTPhy-d2J7x-8" value="" style="html=1;points=[[0,0,0,0,5],[0,1,0,0,-5],[1,0,0,0,5],[1,1,0,0,-5]];perimeter=orthogonalPerimeter;outlineConnect=0;targetShapes=umlLifeline;portConstraint=eastwest;newEdgeStyle={&quot;curved&quot;:0,&quot;rounded&quot;:0};" parent="1" vertex="1">
          <mxGeometry x="330" y="435" width="10" height="24" as="geometry" />
        </mxCell>
        <mxCell id="Afcs3pL26JTPhy-d2J7x-9" value="Đưa ra thông báo lỗi" style="html=1;verticalAlign=bottom;startArrow=none;startFill=0;endArrow=open;startSize=8;rounded=0;dashed=1;endFill=0;entryX=1;entryY=0;entryDx=0;entryDy=5;entryPerimeter=0;" parent="1" source="Afcs3pL26JTPhy-d2J7x-14" target="Afcs3pL26JTPhy-d2J7x-8" edge="1">
          <mxGeometry x="0.0017" width="60" relative="1" as="geometry">
            <mxPoint x="940" y="440" as="sourcePoint" />
            <mxPoint x="650" y="360" as="targetPoint" />
            <mxPoint as="offset" />
          </mxGeometry>
        </mxCell>
        <mxCell id="Afcs3pL26JTPhy-d2J7x-10" value="" style="html=1;points=[[0,0,0,0,5],[0,1,0,0,-5],[1,0,0,0,5],[1,1,0,0,-5]];perimeter=orthogonalPerimeter;outlineConnect=0;targetShapes=umlLifeline;portConstraint=eastwest;newEdgeStyle={&quot;curved&quot;:0,&quot;rounded&quot;:0};" parent="1" vertex="1">
          <mxGeometry x="330" y="510" width="10" height="30" as="geometry" />
        </mxCell>
        <mxCell id="Afcs3pL26JTPhy-d2J7x-11" value="Đưa ra thông báo thành công" style="html=1;verticalAlign=bottom;startArrow=none;startFill=0;endArrow=open;startSize=8;rounded=0;dashed=1;endFill=0;" parent="1" source="Afcs3pL26JTPhy-d2J7x-14" target="Afcs3pL26JTPhy-d2J7x-10" edge="1">
          <mxGeometry x="0.0017" width="60" relative="1" as="geometry">
            <mxPoint x="780" y="520" as="sourcePoint" />
            <mxPoint x="350" y="517" as="targetPoint" />
            <mxPoint as="offset" />
          </mxGeometry>
        </mxCell>
        <mxCell id="Afcs3pL26JTPhy-d2J7x-12" value="Hiển thị danh sách bàn sau khi sửa" style="html=1;verticalAlign=bottom;startArrow=none;startFill=0;endArrow=open;startSize=8;rounded=0;dashed=1;endFill=0;entryX=1;entryY=1;entryDx=0;entryDy=-5;entryPerimeter=0;" parent="1" source="Afcs3pL26JTPhy-d2J7x-14" target="Afcs3pL26JTPhy-d2J7x-13" edge="1">
          <mxGeometry x="-0.0598" y="-10" width="60" relative="1" as="geometry">
            <mxPoint x="935" y="584" as="sourcePoint" />
            <mxPoint x="360" y="527" as="targetPoint" />
            <mxPoint as="offset" />
          </mxGeometry>
        </mxCell>
        <mxCell id="Afcs3pL26JTPhy-d2J7x-13" value="" style="html=1;points=[[0,0,0,0,5],[0,1,0,0,-5],[1,0,0,0,5],[1,1,0,0,-5]];perimeter=orthogonalPerimeter;outlineConnect=0;targetShapes=umlLifeline;portConstraint=eastwest;newEdgeStyle={&quot;curved&quot;:0,&quot;rounded&quot;:0};" parent="1" vertex="1">
          <mxGeometry x="330" y="555" width="10" height="30" as="geometry" />
        </mxCell>
        <mxCell id="Afcs3pL26JTPhy-d2J7x-14" value="" style="html=1;points=[[0,0,0,0,5],[0,1,0,0,-5],[1,0,0,0,5],[1,1,0,0,-5]];perimeter=orthogonalPerimeter;outlineConnect=0;targetShapes=umlLifeline;portConstraint=eastwest;newEdgeStyle={&quot;curved&quot;:0,&quot;rounded&quot;:0};" parent="1" vertex="1">
          <mxGeometry x="730" y="415" width="10" height="170" as="geometry" />
        </mxCell>
      </root>
    </mxGraphModel>
  </diagram>
  <diagram id="6X8Ee8pMI6IbiseG7O4X" name="Xóa bàn">
    <mxGraphModel dx="1236" dy="590" grid="1" gridSize="10" guides="1" tooltips="1" connect="1" arrows="1" fold="1" page="1" pageScale="1" pageWidth="827" pageHeight="1169" math="0" shadow="0">
      <root>
        <mxCell id="0" />
        <mxCell id="1" parent="0" />
        <mxCell id="c2ZzzSOjBTASFllBr2or-1" value="" style="shape=umlLifeline;perimeter=lifelinePerimeter;whiteSpace=wrap;html=1;container=1;dropTarget=0;collapsible=0;recursiveResize=0;outlineConnect=0;portConstraint=eastwest;newEdgeStyle={&quot;curved&quot;:0,&quot;rounded&quot;:0};participant=umlActor;" parent="1" vertex="1">
          <mxGeometry x="150" y="80" width="40" height="560" as="geometry" />
        </mxCell>
        <mxCell id="c2ZzzSOjBTASFllBr2or-2" value="" style="html=1;points=[[0,0,0,0,5],[0,1,0,0,-5],[1,0,0,0,5],[1,1,0,0,-5]];perimeter=orthogonalPerimeter;outlineConnect=0;targetShapes=umlLifeline;portConstraint=eastwest;newEdgeStyle={&quot;curved&quot;:0,&quot;rounded&quot;:0};" parent="c2ZzzSOjBTASFllBr2or-1" vertex="1">
          <mxGeometry x="15" y="80" width="10" height="480" as="geometry" />
        </mxCell>
        <mxCell id="c2ZzzSOjBTASFllBr2or-3" value="" style="shape=umlLifeline;perimeter=lifelinePerimeter;whiteSpace=wrap;html=1;container=1;dropTarget=0;collapsible=0;recursiveResize=0;outlineConnect=0;portConstraint=eastwest;newEdgeStyle={&quot;curved&quot;:0,&quot;rounded&quot;:0};participant=umlBoundary;" parent="1" vertex="1">
          <mxGeometry x="310" y="80" width="50" height="520" as="geometry" />
        </mxCell>
        <mxCell id="c2ZzzSOjBTASFllBr2or-4" value="" style="html=1;points=[[0,0,0,0,5],[0,1,0,0,-5],[1,0,0,0,5],[1,1,0,0,-5]];perimeter=orthogonalPerimeter;outlineConnect=0;targetShapes=umlLifeline;portConstraint=eastwest;newEdgeStyle={&quot;curved&quot;:0,&quot;rounded&quot;:0};" parent="c2ZzzSOjBTASFllBr2or-3" vertex="1">
          <mxGeometry x="20" y="90" width="10" height="130" as="geometry" />
        </mxCell>
        <mxCell id="c2ZzzSOjBTASFllBr2or-5" value="Quản lý" style="text;html=1;strokeColor=none;fillColor=none;align=center;verticalAlign=middle;whiteSpace=wrap;rounded=0;" parent="1" vertex="1">
          <mxGeometry x="135" y="120" width="70" height="30" as="geometry" />
        </mxCell>
        <mxCell id="c2ZzzSOjBTASFllBr2or-6" value="view bàn" style="text;html=1;strokeColor=none;fillColor=none;align=center;verticalAlign=middle;whiteSpace=wrap;rounded=0;" parent="1" vertex="1">
          <mxGeometry x="290" y="120" width="90" height="30" as="geometry" />
        </mxCell>
        <mxCell id="c2ZzzSOjBTASFllBr2or-10" value="Xem danh sách bàn" style="html=1;verticalAlign=bottom;endArrow=block;curved=0;rounded=0;" parent="1" target="c2ZzzSOjBTASFllBr2or-4" edge="1">
          <mxGeometry width="80" relative="1" as="geometry">
            <mxPoint x="175" y="200" as="sourcePoint" />
            <mxPoint x="310" y="200" as="targetPoint" />
          </mxGeometry>
        </mxCell>
        <mxCell id="c2ZzzSOjBTASFllBr2or-11" value="" style="html=1;verticalAlign=bottom;endArrow=block;curved=0;rounded=0;" parent="1" target="c2ZzzSOjBTASFllBr2or-4" edge="1">
          <mxGeometry width="80" relative="1" as="geometry">
            <mxPoint x="175" y="235" as="sourcePoint" />
            <mxPoint x="310" y="240" as="targetPoint" />
          </mxGeometry>
        </mxCell>
        <mxCell id="c2ZzzSOjBTASFllBr2or-14" value=":Database&lt;br&gt;" style="shape=umlLifeline;perimeter=lifelinePerimeter;whiteSpace=wrap;html=1;container=1;dropTarget=0;collapsible=0;recursiveResize=0;outlineConnect=0;portConstraint=eastwest;newEdgeStyle={&quot;curved&quot;:0,&quot;rounded&quot;:0};size=70;" parent="1" vertex="1">
          <mxGeometry x="690" y="80" width="100" height="530" as="geometry" />
        </mxCell>
        <mxCell id="c2ZzzSOjBTASFllBr2or-15" value="" style="html=1;points=[[0,0,0,0,5],[0,1,0,0,-5],[1,0,0,0,5],[1,1,0,0,-5]];perimeter=orthogonalPerimeter;outlineConnect=0;targetShapes=umlLifeline;portConstraint=eastwest;newEdgeStyle={&quot;curved&quot;:0,&quot;rounded&quot;:0};" parent="c2ZzzSOjBTASFllBr2or-14" vertex="1">
          <mxGeometry x="45" y="175" width="10" height="135" as="geometry" />
        </mxCell>
        <mxCell id="c2ZzzSOjBTASFllBr2or-16" value="" style="shape=umlLifeline;perimeter=lifelinePerimeter;whiteSpace=wrap;html=1;container=1;dropTarget=0;collapsible=0;recursiveResize=0;outlineConnect=0;portConstraint=eastwest;newEdgeStyle={&quot;curved&quot;:0,&quot;rounded&quot;:0};participant=umlControl;" parent="1" vertex="1">
          <mxGeometry x="520" y="80" width="40" height="530" as="geometry" />
        </mxCell>
        <mxCell id="c2ZzzSOjBTASFllBr2or-17" value="" style="html=1;points=[[0,0,0,0,5],[0,1,0,0,-5],[1,0,0,0,5],[1,1,0,0,-5]];perimeter=orthogonalPerimeter;outlineConnect=0;targetShapes=umlLifeline;portConstraint=eastwest;newEdgeStyle={&quot;curved&quot;:0,&quot;rounded&quot;:0};" parent="c2ZzzSOjBTASFllBr2or-16" vertex="1">
          <mxGeometry x="15" y="190" width="10" height="70" as="geometry" />
        </mxCell>
        <mxCell id="IMvhPd9ljG0ISraRjwaq-2" value="" style="html=1;points=[[0,0,0,0,5],[0,1,0,0,-5],[1,0,0,0,5],[1,1,0,0,-5]];perimeter=orthogonalPerimeter;outlineConnect=0;targetShapes=umlLifeline;portConstraint=eastwest;newEdgeStyle={&quot;curved&quot;:0,&quot;rounded&quot;:0};" parent="c2ZzzSOjBTASFllBr2or-16" vertex="1">
          <mxGeometry x="15" y="290" width="10" height="20" as="geometry" />
        </mxCell>
        <mxCell id="IMvhPd9ljG0ISraRjwaq-3" value="" style="html=1;points=[[0,0,0,0,5],[0,1,0,0,-5],[1,0,0,0,5],[1,1,0,0,-5]];perimeter=orthogonalPerimeter;outlineConnect=0;targetShapes=umlLifeline;portConstraint=eastwest;newEdgeStyle={&quot;curved&quot;:0,&quot;rounded&quot;:0};" parent="c2ZzzSOjBTASFllBr2or-16" vertex="1">
          <mxGeometry x="15" y="340" width="10" height="170" as="geometry" />
        </mxCell>
        <mxCell id="c2ZzzSOjBTASFllBr2or-18" value="controller xóa bàn" style="text;html=1;align=center;verticalAlign=middle;resizable=0;points=[];autosize=1;strokeColor=none;fillColor=none;" parent="1" vertex="1">
          <mxGeometry x="480" y="120" width="120" height="30" as="geometry" />
        </mxCell>
        <mxCell id="c2ZzzSOjBTASFllBr2or-19" value="Chọn bàn cần xóa" style="text;html=1;align=center;verticalAlign=middle;resizable=0;points=[];autosize=1;strokeColor=none;fillColor=none;" parent="1" vertex="1">
          <mxGeometry x="195" y="208" width="120" height="30" as="geometry" />
        </mxCell>
        <mxCell id="c2ZzzSOjBTASFllBr2or-20" value="Tạo truy vấn xử lý yêu cầu xóa bàn" style="html=1;verticalAlign=bottom;endArrow=block;curved=0;rounded=0;exitX=1;exitY=1;exitDx=0;exitDy=-5;exitPerimeter=0;" parent="1" source="c2ZzzSOjBTASFllBr2or-4" target="c2ZzzSOjBTASFllBr2or-17" edge="1">
          <mxGeometry width="80" relative="1" as="geometry">
            <mxPoint x="530" y="315" as="sourcePoint" />
            <mxPoint x="560" y="260" as="targetPoint" />
          </mxGeometry>
        </mxCell>
        <mxCell id="c2ZzzSOjBTASFllBr2or-25" value="" style="html=1;points=[[0,0,0,0,5],[0,1,0,0,-5],[1,0,0,0,5],[1,1,0,0,-5]];perimeter=orthogonalPerimeter;outlineConnect=0;targetShapes=umlLifeline;portConstraint=eastwest;newEdgeStyle={&quot;curved&quot;:0,&quot;rounded&quot;:0};" parent="1" vertex="1">
          <mxGeometry x="330" y="425.5" width="10" height="24" as="geometry" />
        </mxCell>
        <mxCell id="c2ZzzSOjBTASFllBr2or-26" value="Kiểm tra sự tồn tại của bàn" style="html=1;verticalAlign=bottom;endArrow=block;curved=0;rounded=0;exitX=1;exitY=1;exitDx=0;exitDy=-5;exitPerimeter=0;" parent="1" source="c2ZzzSOjBTASFllBr2or-17" target="c2ZzzSOjBTASFllBr2or-15" edge="1">
          <mxGeometry width="80" relative="1" as="geometry">
            <mxPoint x="755" y="320" as="sourcePoint" />
            <mxPoint x="925" y="335" as="targetPoint" />
          </mxGeometry>
        </mxCell>
        <mxCell id="c2ZzzSOjBTASFllBr2or-27" value="Đưa ra thông báo lỗi" style="html=1;verticalAlign=bottom;startArrow=none;startFill=0;endArrow=open;startSize=8;rounded=0;dashed=1;endFill=0;entryX=1;entryY=0;entryDx=0;entryDy=5;entryPerimeter=0;" parent="1" source="IMvhPd9ljG0ISraRjwaq-3" target="c2ZzzSOjBTASFllBr2or-25" edge="1">
          <mxGeometry x="0.0017" width="60" relative="1" as="geometry">
            <mxPoint x="930" y="430" as="sourcePoint" />
            <mxPoint x="640" y="350" as="targetPoint" />
            <mxPoint as="offset" />
          </mxGeometry>
        </mxCell>
        <mxCell id="c2ZzzSOjBTASFllBr2or-28" value="" style="html=1;points=[[0,0,0,0,5],[0,1,0,0,-5],[1,0,0,0,5],[1,1,0,0,-5]];perimeter=orthogonalPerimeter;outlineConnect=0;targetShapes=umlLifeline;portConstraint=eastwest;newEdgeStyle={&quot;curved&quot;:0,&quot;rounded&quot;:0};" parent="1" vertex="1">
          <mxGeometry x="330" y="485.5" width="10" height="30" as="geometry" />
        </mxCell>
        <mxCell id="c2ZzzSOjBTASFllBr2or-29" value="Đưa ra thông báo thành công" style="html=1;verticalAlign=bottom;startArrow=none;startFill=0;endArrow=open;startSize=8;rounded=0;dashed=1;endFill=0;" parent="1" source="IMvhPd9ljG0ISraRjwaq-3" edge="1">
          <mxGeometry x="0.0017" width="60" relative="1" as="geometry">
            <mxPoint x="770" y="510" as="sourcePoint" />
            <mxPoint x="340" y="507" as="targetPoint" />
            <mxPoint as="offset" />
          </mxGeometry>
        </mxCell>
        <mxCell id="c2ZzzSOjBTASFllBr2or-30" value="Hiển thị danh sách bàn sau khi xóa" style="html=1;verticalAlign=bottom;startArrow=none;startFill=0;endArrow=open;startSize=8;rounded=0;dashed=1;endFill=0;entryX=1;entryY=1;entryDx=0;entryDy=-5;entryPerimeter=0;" parent="1" source="IMvhPd9ljG0ISraRjwaq-3" target="c2ZzzSOjBTASFllBr2or-31" edge="1">
          <mxGeometry x="-0.0598" y="-10" width="60" relative="1" as="geometry">
            <mxPoint x="925" y="574" as="sourcePoint" />
            <mxPoint x="350" y="517" as="targetPoint" />
            <mxPoint as="offset" />
          </mxGeometry>
        </mxCell>
        <mxCell id="c2ZzzSOjBTASFllBr2or-31" value="" style="html=1;points=[[0,0,0,0,5],[0,1,0,0,-5],[1,0,0,0,5],[1,1,0,0,-5]];perimeter=orthogonalPerimeter;outlineConnect=0;targetShapes=umlLifeline;portConstraint=eastwest;newEdgeStyle={&quot;curved&quot;:0,&quot;rounded&quot;:0};" parent="1" vertex="1">
          <mxGeometry x="330" y="545.5" width="10" height="30" as="geometry" />
        </mxCell>
        <mxCell id="Oe1qpGGM5eNOYvHklnEe-1" value="alt" style="shape=umlFrame;whiteSpace=wrap;html=1;pointerEvents=0;" parent="1" vertex="1">
          <mxGeometry x="80" y="401" width="764" height="199" as="geometry" />
        </mxCell>
        <mxCell id="Oe1qpGGM5eNOYvHklnEe-2" value="" style="endArrow=none;dashed=1;html=1;rounded=0;entryX=1.004;entryY=0.32;entryDx=0;entryDy=0;entryPerimeter=0;exitX=0;exitY=0.37;exitDx=0;exitDy=0;exitPerimeter=0;" parent="1" source="Oe1qpGGM5eNOYvHklnEe-1" edge="1">
          <mxGeometry width="50" height="50" relative="1" as="geometry">
            <mxPoint x="-150" y="481" as="sourcePoint" />
            <mxPoint x="847.96" y="475.79999999999995" as="targetPoint" />
            <Array as="points" />
          </mxGeometry>
        </mxCell>
        <mxCell id="Oe1qpGGM5eNOYvHklnEe-3" value="invalid" style="text;html=1;align=center;verticalAlign=middle;resizable=0;points=[];autosize=1;strokeColor=none;fillColor=none;" parent="1" vertex="1">
          <mxGeometry x="90" y="440" width="60" height="30" as="geometry" />
        </mxCell>
        <mxCell id="Oe1qpGGM5eNOYvHklnEe-4" value="valid" style="text;html=1;align=center;verticalAlign=middle;resizable=0;points=[];autosize=1;strokeColor=none;fillColor=none;" parent="1" vertex="1">
          <mxGeometry x="95" y="500" width="50" height="30" as="geometry" />
        </mxCell>
        <mxCell id="IMvhPd9ljG0ISraRjwaq-1" value="Trả về kết quả" style="html=1;verticalAlign=bottom;startArrow=none;startFill=0;endArrow=open;startSize=8;rounded=0;dashed=1;endFill=0;entryX=1;entryY=0;entryDx=0;entryDy=5;entryPerimeter=0;" parent="1" source="c2ZzzSOjBTASFllBr2or-15" target="IMvhPd9ljG0ISraRjwaq-2" edge="1">
          <mxGeometry x="0.0017" width="60" relative="1" as="geometry">
            <mxPoint x="730" y="375" as="sourcePoint" />
            <mxPoint x="155" y="378" as="targetPoint" />
            <mxPoint as="offset" />
          </mxGeometry>
        </mxCell>
      </root>
    </mxGraphModel>
  </diagram>
  <diagram id="uTImnocM8LJNFDULG7DH" name="Tìm kiếm bàn">
    <mxGraphModel dx="1236" dy="590" grid="1" gridSize="10" guides="1" tooltips="1" connect="1" arrows="1" fold="1" page="1" pageScale="1" pageWidth="827" pageHeight="1169" math="0" shadow="0">
      <root>
        <mxCell id="0" />
        <mxCell id="1" parent="0" />
        <mxCell id="qHtEQJJ4IFFOCm4Ykxou-1" value="" style="shape=umlLifeline;perimeter=lifelinePerimeter;whiteSpace=wrap;html=1;container=1;dropTarget=0;collapsible=0;recursiveResize=0;outlineConnect=0;portConstraint=eastwest;newEdgeStyle={&quot;curved&quot;:0,&quot;rounded&quot;:0};participant=umlActor;" parent="1" vertex="1">
          <mxGeometry x="150" y="80" width="40" height="550" as="geometry" />
        </mxCell>
        <mxCell id="qHtEQJJ4IFFOCm4Ykxou-2" value="" style="html=1;points=[[0,0,0,0,5],[0,1,0,0,-5],[1,0,0,0,5],[1,1,0,0,-5]];perimeter=orthogonalPerimeter;outlineConnect=0;targetShapes=umlLifeline;portConstraint=eastwest;newEdgeStyle={&quot;curved&quot;:0,&quot;rounded&quot;:0};" parent="qHtEQJJ4IFFOCm4Ykxou-1" vertex="1">
          <mxGeometry x="15" y="80" width="10" height="470" as="geometry" />
        </mxCell>
        <mxCell id="qHtEQJJ4IFFOCm4Ykxou-3" value="" style="shape=umlLifeline;perimeter=lifelinePerimeter;whiteSpace=wrap;html=1;container=1;dropTarget=0;collapsible=0;recursiveResize=0;outlineConnect=0;portConstraint=eastwest;newEdgeStyle={&quot;curved&quot;:0,&quot;rounded&quot;:0};participant=umlBoundary;" parent="1" vertex="1">
          <mxGeometry x="375" y="80" width="50" height="520" as="geometry" />
        </mxCell>
        <mxCell id="qHtEQJJ4IFFOCm4Ykxou-4" value="" style="html=1;points=[[0,0,0,0,5],[0,1,0,0,-5],[1,0,0,0,5],[1,1,0,0,-5]];perimeter=orthogonalPerimeter;outlineConnect=0;targetShapes=umlLifeline;portConstraint=eastwest;newEdgeStyle={&quot;curved&quot;:0,&quot;rounded&quot;:0};" parent="qHtEQJJ4IFFOCm4Ykxou-3" vertex="1">
          <mxGeometry x="20" y="90" width="10" height="130" as="geometry" />
        </mxCell>
        <mxCell id="qHtEQJJ4IFFOCm4Ykxou-17" value="" style="html=1;points=[[0,0,0,0,5],[0,1,0,0,-5],[1,0,0,0,5],[1,1,0,0,-5]];perimeter=orthogonalPerimeter;outlineConnect=0;targetShapes=umlLifeline;portConstraint=eastwest;newEdgeStyle={&quot;curved&quot;:0,&quot;rounded&quot;:0};" parent="qHtEQJJ4IFFOCm4Ykxou-3" vertex="1">
          <mxGeometry x="20" y="350" width="10" height="24" as="geometry" />
        </mxCell>
        <mxCell id="qHtEQJJ4IFFOCm4Ykxou-23" value="" style="html=1;points=[[0,0,0,0,5],[0,1,0,0,-5],[1,0,0,0,5],[1,1,0,0,-5]];perimeter=orthogonalPerimeter;outlineConnect=0;targetShapes=umlLifeline;portConstraint=eastwest;newEdgeStyle={&quot;curved&quot;:0,&quot;rounded&quot;:0};" parent="qHtEQJJ4IFFOCm4Ykxou-3" vertex="1">
          <mxGeometry x="20" y="460" width="10" height="30" as="geometry" />
        </mxCell>
        <mxCell id="qHtEQJJ4IFFOCm4Ykxou-5" value="Quản lý" style="text;html=1;strokeColor=none;fillColor=none;align=center;verticalAlign=middle;whiteSpace=wrap;rounded=0;" parent="1" vertex="1">
          <mxGeometry x="135" y="120" width="70" height="30" as="geometry" />
        </mxCell>
        <mxCell id="qHtEQJJ4IFFOCm4Ykxou-6" value="view bàn" style="text;html=1;strokeColor=none;fillColor=none;align=center;verticalAlign=middle;whiteSpace=wrap;rounded=0;" parent="1" vertex="1">
          <mxGeometry x="355" y="120" width="90" height="30" as="geometry" />
        </mxCell>
        <mxCell id="qHtEQJJ4IFFOCm4Ykxou-7" value="Xem danh sách bàn" style="html=1;verticalAlign=bottom;endArrow=block;curved=0;rounded=0;" parent="1" target="qHtEQJJ4IFFOCm4Ykxou-4" edge="1">
          <mxGeometry width="80" relative="1" as="geometry">
            <mxPoint x="175" y="200" as="sourcePoint" />
            <mxPoint x="310" y="200" as="targetPoint" />
          </mxGeometry>
        </mxCell>
        <mxCell id="qHtEQJJ4IFFOCm4Ykxou-8" value="" style="html=1;verticalAlign=bottom;endArrow=block;curved=0;rounded=0;" parent="1" target="qHtEQJJ4IFFOCm4Ykxou-4" edge="1">
          <mxGeometry width="80" relative="1" as="geometry">
            <mxPoint x="175" y="235" as="sourcePoint" />
            <mxPoint x="310" y="240" as="targetPoint" />
          </mxGeometry>
        </mxCell>
        <mxCell id="qHtEQJJ4IFFOCm4Ykxou-9" value=":Database&lt;br&gt;" style="shape=umlLifeline;perimeter=lifelinePerimeter;whiteSpace=wrap;html=1;container=1;dropTarget=0;collapsible=0;recursiveResize=0;outlineConnect=0;portConstraint=eastwest;newEdgeStyle={&quot;curved&quot;:0,&quot;rounded&quot;:0};size=70;" parent="1" vertex="1">
          <mxGeometry x="760" y="80" width="100" height="530" as="geometry" />
        </mxCell>
        <mxCell id="qHtEQJJ4IFFOCm4Ykxou-10" value="" style="html=1;points=[[0,0,0,0,5],[0,1,0,0,-5],[1,0,0,0,5],[1,1,0,0,-5]];perimeter=orthogonalPerimeter;outlineConnect=0;targetShapes=umlLifeline;portConstraint=eastwest;newEdgeStyle={&quot;curved&quot;:0,&quot;rounded&quot;:0};" parent="qHtEQJJ4IFFOCm4Ykxou-9" vertex="1">
          <mxGeometry x="45" y="175" width="10" height="135" as="geometry" />
        </mxCell>
        <mxCell id="qHtEQJJ4IFFOCm4Ykxou-11" value="" style="shape=umlLifeline;perimeter=lifelinePerimeter;whiteSpace=wrap;html=1;container=1;dropTarget=0;collapsible=0;recursiveResize=0;outlineConnect=0;portConstraint=eastwest;newEdgeStyle={&quot;curved&quot;:0,&quot;rounded&quot;:0};participant=umlControl;" parent="1" vertex="1">
          <mxGeometry x="610" y="80" width="40" height="530" as="geometry" />
        </mxCell>
        <mxCell id="qHtEQJJ4IFFOCm4Ykxou-12" value="" style="html=1;points=[[0,0,0,0,5],[0,1,0,0,-5],[1,0,0,0,5],[1,1,0,0,-5]];perimeter=orthogonalPerimeter;outlineConnect=0;targetShapes=umlLifeline;portConstraint=eastwest;newEdgeStyle={&quot;curved&quot;:0,&quot;rounded&quot;:0};" parent="qHtEQJJ4IFFOCm4Ykxou-11" vertex="1">
          <mxGeometry x="15" y="190" width="10" height="70" as="geometry" />
        </mxCell>
        <mxCell id="qHtEQJJ4IFFOCm4Ykxou-13" value="" style="html=1;points=[[0,0,0,0,5],[0,1,0,0,-5],[1,0,0,0,5],[1,1,0,0,-5]];perimeter=orthogonalPerimeter;outlineConnect=0;targetShapes=umlLifeline;portConstraint=eastwest;newEdgeStyle={&quot;curved&quot;:0,&quot;rounded&quot;:0};" parent="qHtEQJJ4IFFOCm4Ykxou-11" vertex="1">
          <mxGeometry x="15" y="290" width="10" height="20" as="geometry" />
        </mxCell>
        <mxCell id="qHtEQJJ4IFFOCm4Ykxou-14" value="controller tìm bàn" style="text;html=1;align=center;verticalAlign=middle;resizable=0;points=[];autosize=1;strokeColor=none;fillColor=none;" parent="1" vertex="1">
          <mxGeometry x="570" y="120" width="120" height="30" as="geometry" />
        </mxCell>
        <mxCell id="qHtEQJJ4IFFOCm4Ykxou-15" value="Nhập bàn cần tìm vào ô tìm kiếm" style="text;html=1;align=center;verticalAlign=middle;resizable=0;points=[];autosize=1;strokeColor=none;fillColor=none;" parent="1" vertex="1">
          <mxGeometry x="190" y="208" width="200" height="30" as="geometry" />
        </mxCell>
        <mxCell id="qHtEQJJ4IFFOCm4Ykxou-16" value="Tạo truy vấn xử lý yêu cầu tìm bàn" style="html=1;verticalAlign=bottom;endArrow=block;curved=0;rounded=0;exitX=1;exitY=1;exitDx=0;exitDy=-5;exitPerimeter=0;" parent="1" source="qHtEQJJ4IFFOCm4Ykxou-4" target="qHtEQJJ4IFFOCm4Ykxou-12" edge="1">
          <mxGeometry width="80" relative="1" as="geometry">
            <mxPoint x="530" y="315" as="sourcePoint" />
            <mxPoint x="560" y="260" as="targetPoint" />
          </mxGeometry>
        </mxCell>
        <mxCell id="qHtEQJJ4IFFOCm4Ykxou-18" value="Kiểm tra sự tồn tại của bàn" style="html=1;verticalAlign=bottom;endArrow=block;curved=0;rounded=0;exitX=1;exitY=1;exitDx=0;exitDy=-5;exitPerimeter=0;" parent="1" source="qHtEQJJ4IFFOCm4Ykxou-12" target="qHtEQJJ4IFFOCm4Ykxou-10" edge="1">
          <mxGeometry width="80" relative="1" as="geometry">
            <mxPoint x="755" y="320" as="sourcePoint" />
            <mxPoint x="925" y="335" as="targetPoint" />
          </mxGeometry>
        </mxCell>
        <mxCell id="qHtEQJJ4IFFOCm4Ykxou-19" value="Đưa ra kết quả trống" style="html=1;verticalAlign=bottom;startArrow=none;startFill=0;endArrow=open;startSize=8;rounded=0;dashed=1;endFill=0;entryX=1;entryY=0;entryDx=0;entryDy=5;entryPerimeter=0;" parent="1" source="qHtEQJJ4IFFOCm4Ykxou-29" target="qHtEQJJ4IFFOCm4Ykxou-17" edge="1">
          <mxGeometry x="0.0017" width="60" relative="1" as="geometry">
            <mxPoint x="930" y="430" as="sourcePoint" />
            <mxPoint x="640" y="350" as="targetPoint" />
            <mxPoint as="offset" />
          </mxGeometry>
        </mxCell>
        <mxCell id="qHtEQJJ4IFFOCm4Ykxou-22" value="Hiển thị danh sách bàn cần tìm" style="html=1;verticalAlign=bottom;startArrow=none;startFill=0;endArrow=open;startSize=8;rounded=0;dashed=1;endFill=0;entryX=1;entryY=1;entryDx=0;entryDy=-5;entryPerimeter=0;" parent="1" source="qHtEQJJ4IFFOCm4Ykxou-29" target="qHtEQJJ4IFFOCm4Ykxou-23" edge="1">
          <mxGeometry x="-0.0598" y="-10" width="60" relative="1" as="geometry">
            <mxPoint x="925" y="574" as="sourcePoint" />
            <mxPoint x="350" y="517" as="targetPoint" />
            <mxPoint as="offset" />
          </mxGeometry>
        </mxCell>
        <mxCell id="qHtEQJJ4IFFOCm4Ykxou-24" value="alt" style="shape=umlFrame;whiteSpace=wrap;html=1;pointerEvents=0;" parent="1" vertex="1">
          <mxGeometry x="80" y="401" width="764" height="199" as="geometry" />
        </mxCell>
        <mxCell id="qHtEQJJ4IFFOCm4Ykxou-25" value="" style="endArrow=none;dashed=1;html=1;rounded=0;entryX=1.004;entryY=0.32;entryDx=0;entryDy=0;entryPerimeter=0;exitX=0;exitY=0.37;exitDx=0;exitDy=0;exitPerimeter=0;" parent="1" source="qHtEQJJ4IFFOCm4Ykxou-24" edge="1">
          <mxGeometry width="50" height="50" relative="1" as="geometry">
            <mxPoint x="-150" y="481" as="sourcePoint" />
            <mxPoint x="847.96" y="475.79999999999995" as="targetPoint" />
            <Array as="points" />
          </mxGeometry>
        </mxCell>
        <mxCell id="qHtEQJJ4IFFOCm4Ykxou-26" value="invalid" style="text;html=1;align=center;verticalAlign=middle;resizable=0;points=[];autosize=1;strokeColor=none;fillColor=none;" parent="1" vertex="1">
          <mxGeometry x="90" y="440" width="60" height="30" as="geometry" />
        </mxCell>
        <mxCell id="qHtEQJJ4IFFOCm4Ykxou-27" value="valid" style="text;html=1;align=center;verticalAlign=middle;resizable=0;points=[];autosize=1;strokeColor=none;fillColor=none;" parent="1" vertex="1">
          <mxGeometry x="95" y="500" width="50" height="30" as="geometry" />
        </mxCell>
        <mxCell id="qHtEQJJ4IFFOCm4Ykxou-28" value="Trả về kết quả" style="html=1;verticalAlign=bottom;startArrow=none;startFill=0;endArrow=open;startSize=8;rounded=0;dashed=1;endFill=0;entryX=1;entryY=0;entryDx=0;entryDy=5;entryPerimeter=0;" parent="1" source="qHtEQJJ4IFFOCm4Ykxou-10" target="qHtEQJJ4IFFOCm4Ykxou-13" edge="1">
          <mxGeometry x="0.0017" width="60" relative="1" as="geometry">
            <mxPoint x="730" y="375" as="sourcePoint" />
            <mxPoint x="155" y="378" as="targetPoint" />
            <mxPoint as="offset" />
          </mxGeometry>
        </mxCell>
        <mxCell id="qHtEQJJ4IFFOCm4Ykxou-29" value="" style="html=1;points=[[0,0,0,0,5],[0,1,0,0,-5],[1,0,0,0,5],[1,1,0,0,-5]];perimeter=orthogonalPerimeter;outlineConnect=0;targetShapes=umlLifeline;portConstraint=eastwest;newEdgeStyle={&quot;curved&quot;:0,&quot;rounded&quot;:0};" parent="1" vertex="1">
          <mxGeometry x="625" y="415.5" width="10" height="170" as="geometry" />
        </mxCell>
      </root>
    </mxGraphModel>
  </diagram>
</mxfile>
